```mermaid
<mxfile host="app.diagrams.net" agent="Mozilla/5.0 (Windows NT 10.0; Win64; x64) AppleWebKit/537.36 (KHTML, like Gecko) Chrome/134.0.0.0 YaBrowser/25.4.0.0 Safari/537.36" version="27.2.0">
  <diagram name="Страница — 1" id="csOCYKosOZ4WUpXYceSf">
    <mxGraphModel dx="2505" dy="2096" grid="1" gridSize="10" guides="1" tooltips="1" connect="1" arrows="1" fold="1" page="1" pageScale="1" pageWidth="827" pageHeight="1169" math="0" shadow="0">
      <root>
        <mxCell id="0" />
        <mxCell id="1" parent="0" />
        <mxCell id="user_service" value="Пользовательский сервис&#xa;(Node.js/Python)" style="rounded=1;whiteSpace=wrap;html=1;fillColor=#d5e8d4;strokeColor=#82b366;" vertex="1" parent="1">
          <mxGeometry x="-145" y="-40" width="150" height="80" as="geometry" />
        </mxCell>
        <mxCell id="social_service" value="Социальный сервис&#xa;(Node.js/Python)" style="rounded=1;whiteSpace=wrap;html=1;fillColor=#dae8fc;strokeColor=#6c8ebf;" vertex="1" parent="1">
          <mxGeometry x="-470" y="-40" width="150" height="80" as="geometry" />
        </mxCell>
        <mxCell id="training_service" value="Сервис тренировок&#xa;(Python)" style="rounded=1;whiteSpace=wrap;html=1;fillColor=#f8cecc;strokeColor=#b85450;" vertex="1" parent="1">
          <mxGeometry x="210" y="-260" width="150" height="80" as="geometry" />
        </mxCell>
        <mxCell id="integration_service" value="Сервис интеграции&#xa;(Python)" style="rounded=1;whiteSpace=wrap;html=1;fillColor=#e1d5e7;strokeColor=#9673a6;" vertex="1" parent="1">
          <mxGeometry x="360" y="120" width="152.5" height="80" as="geometry" />
        </mxCell>
        <mxCell id="gamification_service" value="Сервис геймификации&#xa;(Node.js)" style="rounded=1;whiteSpace=wrap;html=1;fillColor=#fff2cc;strokeColor=#d6b656;" vertex="1" parent="1">
          <mxGeometry x="-470" y="-260" width="150" height="80" as="geometry" />
        </mxCell>
        <mxCell id="notification_service" value="Сервис уведомлений&#xa;(Node.js)" style="rounded=1;whiteSpace=wrap;html=1;fillColor=#FFE6CC;strokeColor=#D79B00;container=0;" vertex="1" parent="1">
          <mxGeometry x="240" y="260" width="150" height="80" as="geometry" />
        </mxCell>
        <mxCell id="analytics_service" value="Сервис аналитики&#xa;(Python)" style="rounded=1;whiteSpace=wrap;html=1;fillColor=#D5E8D4;strokeColor=#82B366;" vertex="1" parent="1">
          <mxGeometry x="40" y="260" width="150" height="80" as="geometry" />
        </mxCell>
        <mxCell id="postgres" value="PostgreSQL" style="shape=cylinder3;whiteSpace=wrap;html=1;boundedLbl=1;backgroundOutline=1;fillColor=#f5f5f5;strokeColor=#666666;" vertex="1" parent="1">
          <mxGeometry x="10" y="-150" width="120" height="80" as="geometry" />
        </mxCell>
        <mxCell id="mongodb" value="MongoDB" style="shape=cylinder3;whiteSpace=wrap;html=1;boundedLbl=1;backgroundOutline=1;fillColor=#f5f5f5;strokeColor=#666666;" vertex="1" parent="1">
          <mxGeometry x="-455" y="120" width="120" height="80" as="geometry" />
        </mxCell>
        <mxCell id="s3" value="S3 Storage (MinIO)" style="shape=cylinder3;whiteSpace=wrap;html=1;boundedLbl=1;backgroundOutline=1;fillColor=#CCE6FF;strokeColor=#0066CC;" vertex="1" parent="1">
          <mxGeometry x="-130" y="120" width="120" height="80" as="geometry" />
        </mxCell>
        <mxCell id="nginx" value="NGINX&lt;br&gt;(API-шлюз)" style="rounded=1;whiteSpace=wrap;html=1;fillColor=#ffffff;strokeColor=#000000;" vertex="1" parent="1">
          <mxGeometry x="-130" y="-330" width="120" height="60" as="geometry" />
        </mxCell>
        <mxCell id="kafka" value="Apache Kafka&lt;br&gt;(Брокер сообщений)" style="shape=cylinder3;whiteSpace=wrap;html=1;fillColor=#f5f5f5;strokeColor=#666666;" vertex="1" parent="1">
          <mxGeometry x="130" y="115" width="120" height="90" as="geometry" />
        </mxCell>
        <mxCell id="mobile_app" value="Мобильное приложение&#xa;(React Native)" style="rounded=1;whiteSpace=wrap;html=1;fillColor=#ffffff;strokeColor=#000000;" vertex="1" parent="1">
          <mxGeometry x="-145" y="-460" width="150" height="60" as="geometry" />
        </mxCell>
        <mxCell id="fitness_trackers" value="Фитнес-трекеры&#xa;и сторонние API" style="rounded=1;whiteSpace=wrap;html=1;fillColor=#ffffff;strokeColor=#000000;dashed=1;" vertex="1" parent="1">
          <mxGeometry x="610" y="130" width="150" height="60" as="geometry" />
        </mxCell>
        <mxCell id="conn1" value="HTTPS" style="edgeStyle=none;rounded=0;html=1;endArrow=classic;endFill=1;" edge="1" parent="1" source="mobile_app" target="nginx">
          <mxGeometry relative="1" as="geometry" />
        </mxCell>
        <mxCell id="conn2" value="API / пользователи" style="edgeStyle=none;rounded=0;html=1;endArrow=classic;endFill=1;" edge="1" parent="1" source="nginx" target="user_service">
          <mxGeometry relative="1" as="geometry" />
        </mxCell>
        <mxCell id="conn3" value="API (REST)" style="edgeStyle=none;rounded=0;html=1;endArrow=classic;endFill=1;" edge="1" parent="1" source="user_service" target="social_service">
          <mxGeometry relative="1" as="geometry" />
        </mxCell>
        <mxCell id="conn4" value="API (REST)" style="edgeStyle=none;rounded=0;html=1;endArrow=classic;endFill=1;entryX=0.5;entryY=1;entryDx=0;entryDy=0;exitX=1;exitY=0.5;exitDx=0;exitDy=0;" edge="1" parent="1" source="user_service" target="training_service">
          <mxGeometry x="-0.1957" relative="1" as="geometry">
            <Array as="points">
              <mxPoint x="285" />
            </Array>
            <mxPoint as="offset" />
          </mxGeometry>
        </mxCell>
        <mxCell id="conn5" value="API (REST)" style="edgeStyle=none;rounded=0;html=1;endArrow=classic;endFill=1;" edge="1" parent="1" source="training_service" target="gamification_service">
          <mxGeometry x="-0.4098" relative="1" as="geometry">
            <mxPoint as="offset" />
          </mxGeometry>
        </mxCell>
        <mxCell id="conn6" value="API (REST)" style="edgeStyle=none;rounded=0;html=1;endArrow=classic;endFill=1;" edge="1" parent="1" source="social_service" target="gamification_service">
          <mxGeometry relative="1" as="geometry">
            <mxPoint x="425" y="200" as="sourcePoint" />
            <mxPoint x="460" y="400" as="targetPoint" />
          </mxGeometry>
        </mxCell>
        <mxCell id="conn7" value="тренировочные события" style="edgeStyle=none;rounded=0;html=1;endArrow=classic;endFill=1;dashed=1;exitX=0.75;exitY=1;exitDx=0;exitDy=0;entryX=0.5;entryY=0;entryDx=0;entryDy=0;entryPerimeter=0;" edge="1" parent="1" source="training_service" target="kafka">
          <mxGeometry x="0.0236" y="3" relative="1" as="geometry">
            <mxPoint as="offset" />
            <Array as="points">
              <mxPoint x="320" y="80" />
              <mxPoint x="190" y="80" />
            </Array>
          </mxGeometry>
        </mxCell>
        <mxCell id="conn8" value="данные устройств" style="edgeStyle=none;rounded=0;html=1;endArrow=classic;endFill=1;dashed=1;" edge="1" parent="1" source="integration_service" target="kafka">
          <mxGeometry y="-15" relative="1" as="geometry">
            <mxPoint as="offset" />
          </mxGeometry>
        </mxCell>
        <mxCell id="conn9" style="edgeStyle=none;rounded=0;html=1;exitX=0.75;exitY=0;exitDx=0;exitDy=0;entryX=0.145;entryY=1;entryDx=0;entryDy=-4.35;endArrow=classic;endFill=1;entryPerimeter=0;" edge="1" parent="1" source="user_service" target="postgres">
          <mxGeometry relative="1" as="geometry">
            <Array as="points" />
          </mxGeometry>
        </mxCell>
        <mxCell id="conn10" style="edgeStyle=none;rounded=0;html=1;exitX=0;exitY=1;exitDx=0;exitDy=0;entryX=1;entryY=0.5;entryDx=0;entryDy=0;endArrow=classic;endFill=1;entryPerimeter=0;" edge="1" parent="1" source="training_service" target="postgres">
          <mxGeometry relative="1" as="geometry" />
        </mxCell>
        <mxCell id="conn11" style="edgeStyle=none;rounded=0;html=1;exitX=0.5;exitY=1;exitDx=0;exitDy=0;entryX=0.5;entryY=0;entryDx=0;entryDy=0;endArrow=classic;endFill=1;" edge="1" parent="1" source="social_service" target="mongodb">
          <mxGeometry relative="1" as="geometry" />
        </mxCell>
        <mxCell id="conn13" value="" style="edgeStyle=none;rounded=0;html=1;endArrow=classic;endFill=1;dashed=1;exitX=0.75;exitY=1;exitDx=0;exitDy=0;entryX=0;entryY=0.5;entryDx=0;entryDy=0;entryPerimeter=0;" edge="1" parent="1" source="gamification_service" target="redis">
          <mxGeometry relative="1" as="geometry" />
        </mxCell>
        <mxCell id="conn14" value="" style="edgeStyle=none;rounded=0;html=1;endArrow=classic;endFill=1;dashed=1;exitX=0.5;exitY=1;exitDx=0;exitDy=0;entryX=0.5;entryY=0;entryDx=0;entryDy=0;entryPerimeter=0;" edge="1" parent="1" source="user_service" target="s3">
          <mxGeometry relative="1" as="geometry" />
        </mxCell>
        <mxCell id="conn15" value="" style="edgeStyle=none;rounded=0;html=1;endArrow=classic;endFill=1;dashed=1;exitX=0.5;exitY=1;exitDx=0;exitDy=0;entryX=0.145;entryY=0;entryDx=0;entryDy=4.35;entryPerimeter=0;" edge="1" parent="1" source="social_service" target="s3">
          <mxGeometry relative="1" as="geometry" />
        </mxCell>
        <mxCell id="conn16" value="аналитика" style="edgeStyle=none;rounded=0;html=1;endArrow=classic;endFill=1;dashed=1;exitX=0.5;exitY=1;exitDx=0;exitDy=0;entryX=0.5;entryY=0;entryDx=0;entryDy=0;exitPerimeter=0;" edge="1" parent="1" source="kafka" target="analytics_service">
          <mxGeometry x="0.0087" relative="1" as="geometry">
            <mxPoint as="offset" />
          </mxGeometry>
        </mxCell>
        <mxCell id="conn17" value="" style="edgeStyle=none;rounded=0;html=1;endArrow=classic;endFill=1;dashed=1;entryX=0.855;entryY=1;entryDx=0;entryDy=-4.35;entryPerimeter=0;" edge="1" parent="1" source="analytics_service" target="s3">
          <mxGeometry relative="1" as="geometry" />
        </mxCell>
        <mxCell id="conn18" value="события" style="edgeStyle=none;rounded=0;html=1;endArrow=classic;endFill=1;dashed=1;exitX=0.5;exitY=1;exitDx=0;exitDy=0;entryX=0.5;entryY=0;entryDx=0;entryDy=0;exitPerimeter=0;" edge="1" parent="1" source="kafka" target="notification_service">
          <mxGeometry relative="1" as="geometry" />
        </mxCell>
        <mxCell id="conn19" style="edgeStyle=none;rounded=0;html=1;exitX=0;exitY=0.5;exitDx=0;exitDy=0;entryX=1;entryY=0.5;entryDx=0;entryDy=0;endArrow=classic;endFill=1;dashed=1;" edge="1" parent="1" source="fitness_trackers" target="integration_service">
          <mxGeometry relative="1" as="geometry" />
        </mxCell>
        <mxCell id="Cy4Z-d1pcZ75q51uFXBP-2" value="" style="edgeStyle=none;rounded=0;html=1;endArrow=classic;endFill=1;dashed=1;exitX=0.25;exitY=0;exitDx=0;exitDy=0;entryX=0.855;entryY=1;entryDx=0;entryDy=-4.35;entryPerimeter=0;" edge="1" parent="1" source="user_service" target="redis">
          <mxGeometry relative="1" as="geometry">
            <mxPoint x="-107" y="-40" as="sourcePoint" />
            <mxPoint x="-395" y="-470" as="targetPoint" />
          </mxGeometry>
        </mxCell>
        <mxCell id="redis" value="Redis (Cache)" style="shape=cylinder3;whiteSpace=wrap;html=1;boundedLbl=1;backgroundOutline=1;fillColor=#FFCCCC;strokeColor=#CC0000;" vertex="1" parent="1">
          <mxGeometry x="-270" y="-150" width="120" height="80" as="geometry" />
        </mxCell>
        <mxCell id="Cy4Z-d1pcZ75q51uFXBP-4" value="Kubernetes" style="swimlane;whiteSpace=wrap;html=1;" vertex="1" parent="1">
          <mxGeometry x="-513" y="-510" width="1063" height="900" as="geometry" />
        </mxCell>
      </root>
    </mxGraphModel>
  </diagram>
</mxfile>
```
